# xmcd
#
# Track frame offsets:
#	183
#	12330
#	24023
#	34530
#	47505
#	58215
#	69923
#	77078
#	86873
#	99178
#	110663
#	123548
#	132795
#	146290
#	155658
#	166685
#	178245
#	188663
#	199683
#	212728
#
# Disc length: 3005 seconds
#
# Revision: 0
# Processed by: cddbd v1.5.1PL2 Copyright (c) Steve Scherf et al.
# Submitted via: audiograbber 1.83.01
#
DISCID=050bbb14
DTITLE=Slim Whitman - 20 Greatest Love Songs
DYEAR=1992
DGENRE=Vocal
TTITLE0=I Love You Because
TTITLE1=Together
TTITLE2=It's All In The Game
TTITLE3=Tammy
TTITLE4=A Very Precious Love
TTITLE5=I'll Never Find Another You
TTITLE6=Don't Let The Stars Get In Your Eyes
TTITLE7=Only You
TTITLE8=More Than Yesterday
TTITLE9=The Loveliest Night Of The Year
TTITLE10=Stranger On The Shore
TTITLE11=Please Help Me I Am Falling
TTITLE12=Unchained Melody
TTITLE13=Love Letters In The Sand
TTITLE14=Just Loving You
TTITLE15=A Fool Such As I
TTITLE16=My Heart Cries For You
TTITLE17=My Happiness
TTITLE18=Guess Who
TTITLE19=Silver Threads Among The Gold
EXTD=
EXTT0=
EXTT1=
EXTT2=
EXTT3=
EXTT4=
EXTT5=
EXTT6=
EXTT7=
EXTT8=
EXTT9=
EXTT10=
EXTT11=
EXTT12=
EXTT13=
EXTT14=
EXTT15=
EXTT16=
EXTT17=
EXTT18=
EXTT19=
PLAYORDER=
